<svg id="Icon" xmlns="http://www.w3.org/2000/svg" width="5.5" height="10" viewBox="0 0 5.5 10">
  <path id="Path" d="M5.5.35A.328.328,0,0,0,5.156,0H.344A.328.328,0,0,0,0,.35H0A.328.328,0,0,0,.344.7H1.719A2.136,2.136,0,0,1,3.747,2.448H.344A.328.328,0,0,0,0,2.8H0a.328.328,0,0,0,.344.35h3.4A2.022,2.022,0,0,1,1.719,4.9H0v.979L4.022,9.9a.328.328,0,0,0,.481,0h0a.342.342,0,0,0,0-.49L.688,5.594H1.719A2.739,2.739,0,0,0,4.434,3.147h.722A.328.328,0,0,0,5.5,2.8h0a.328.328,0,0,0-.344-.35H4.434A2.994,2.994,0,0,0,3.506.7h1.65A.328.328,0,0,0,5.5.35Z" fill="#4a4a4a"/>
</svg>
